<svg xmlns="http://www.w3.org/2000/svg" id="prefix__Tournaments_x5F_Applications" width="38.333" height="50" viewBox="0 0 38.333 50">
    <defs>
        <style>
            .prefix__cls-1{fill:#5c6881}
        </style>
    </defs>
    <g id="prefix__Group_965" data-name="Group 965">
        <g id="prefix__Capa_1">
            <path id="prefix__Path_485" d="M35.833 0H2.5A2.5 2.5 0 0 0 0 2.5v45A2.5 2.5 0 0 0 2.5 50h33.333a2.5 2.5 0 0 0 2.5-2.5v-45a2.5 2.5 0 0 0-2.5-2.5zm.834 47.5a.835.835 0 0 1-.834.833H2.5a.833.833 0 0 1-.833-.833v-45a.833.833 0 0 1 .833-.833h33.333a.835.835 0 0 1 .834.833z" class="prefix__cls-1" data-name="Path 485"/>
            <path id="prefix__Path_486" d="M12.264 17.572a8.445 8.445 0 0 0 11.933.514q.268-.246.514-.514a.787.787 0 0 0 .07-.077 8.488 8.488 0 1 0-12.589 0 .934.934 0 0 0 .072.077zm1.442-.73a5.419 5.419 0 0 1 2.733-2.5 4.8 4.8 0 0 1 1.171-.321 3.544 3.544 0 0 0 1.756 0 4.779 4.779 0 0 1 1.178.328 5.419 5.419 0 0 1 2.728 2.495 6.911 6.911 0 0 1-9.566 0zm2.468-6.566a2.315 2.315 0 1 1 2.315 2.315 2.315 2.315 0 0 1-2.315-2.315zm-3.787-1.782a6.943 6.943 0 1 1 12.194 6.644c-.082.152-.171.3-.265.445a6.945 6.945 0 0 0-3.074-2.609 3.859 3.859 0 1 0-5.5 0 6.957 6.957 0 0 0-3.074 2.609 6.936 6.936 0 0 1-.281-7.089z" class="prefix__cls-1" data-name="Path 486" transform="translate(.679 -.245)"/>
            <path id="prefix__Path_487" d="M6.034 28.735h8.488a2.7 2.7 0 1 0 0-5.4H6.034a2.7 2.7 0 1 0 0 5.4zm5.016-3.859h3.472a1.157 1.157 0 1 1 0 2.315H11.05zm-5.016 0h3.472v2.315H6.034a1.157 1.157 0 0 1 0-2.315z" class="prefix__cls-1" data-name="Path 487" transform="translate(-.247 .228)"/>
            <path id="prefix__Path_488" d="M31.188 23.333H22.7a2.7 2.7 0 1 0 0 5.4h8.491a2.7 2.7 0 1 0 0-5.4zm-5.015 3.859H22.7a1.157 1.157 0 1 1 0-2.315h3.472zm5.015 0h-3.472v-2.315h3.472a1.157 1.157 0 1 1 0 2.315z" class="prefix__cls-1" data-name="Path 488" transform="translate(1.357 .228)"/>
            <path id="prefix__Path_489" d="M14.523 36.235a2.7 2.7 0 0 0 0-5.4H6.034a2.7 2.7 0 0 0 0 5.4zm-3.473-3.858h3.472a1.157 1.157 0 1 1 0 2.315H11.05zm-6.173 1.157a1.159 1.159 0 0 1 1.157-1.157h3.473v2.315H6.034a1.159 1.159 0 0 1-1.157-1.158z" class="prefix__cls-1" data-name="Path 489" transform="translate(-.247 .302)"/>
            <path id="prefix__Path_490" d="M31.188 30.833H22.7a2.7 2.7 0 0 0 0 5.4h8.491a2.7 2.7 0 0 0 0-5.4zm-5.015 3.859H22.7a1.157 1.157 0 1 1 0-2.315h3.472zm5.015 0h-3.472v-2.315h3.472a1.157 1.157 0 1 1 0 2.315z" class="prefix__cls-1" data-name="Path 490" transform="translate(1.357 .302)"/>
            <path id="prefix__Path_491" d="M12.062 40.713l-1.725-.264-.78-1.67a.772.772 0 0 0-1.4 0l-.779 1.67-1.725.264a.773.773 0 0 0-.437 1.3l1.273 1.313-.3 1.863a.772.772 0 0 0 1.137.8l1.537-.853 1.532.853a.772.772 0 0 0 1.137-.8l-.311-1.863 1.279-1.312a.772.772 0 0 0-.437-1.3zm-2.215 1.816a.771.771 0 0 0-.208.661l.109.674-.518-.287a.772.772 0 0 0-.75 0l-.517.287.11-.674a.771.771 0 0 0-.208-.661l-.5-.519.656-.1a.771.771 0 0 0 .582-.437l.254-.543.254.543a.77.77 0 0 0 .582.437l.656.1z" class="prefix__cls-1" data-name="Path 491" transform="translate(-.37 .864)"/>
            <path id="prefix__Path_492" d="M22.062 40.713l-1.725-.264-.78-1.67a.772.772 0 0 0-1.4 0l-.779 1.67-1.725.264a.772.772 0 0 0-.438 1.3l1.273 1.313-.3 1.863a.772.772 0 0 0 1.137.8l1.537-.853 1.532.853a.772.772 0 0 0 1.137-.8l-.3-1.863 1.269-1.313a.772.772 0 0 0-.437-1.3zm-2.215 1.817a.771.771 0 0 0-.208.661l.109.674-.517-.287a.772.772 0 0 0-.75 0l-.517.287.109-.674a.771.771 0 0 0-.208-.661l-.5-.519.654-.1a.768.768 0 0 0 .582-.437l.255-.543.254.543a.768.768 0 0 0 .582.437l.655.1z" class="prefix__cls-1" data-name="Path 492" transform="translate(.309 .864)"/>
            <path id="prefix__Path_493" d="M32.062 40.713l-1.727-.264-.78-1.67a.772.772 0 0 0-1.4 0l-.779 1.67-1.725.264a.773.773 0 0 0-.437 1.3l1.273 1.313-.3 1.863a.772.772 0 0 0 1.137.8l1.532-.853 1.532.853a.772.772 0 0 0 1.137-.8l-.3-1.863 1.275-1.312a.772.772 0 0 0-.437-1.3zm-2.215 1.817a.771.771 0 0 0-.208.661l.109.674-.517-.287a.772.772 0 0 0-.75 0l-.517.287.11-.674a.771.771 0 0 0-.208-.661l-.5-.519.656-.1a.771.771 0 0 0 .582-.437l.254-.543.254.543a.77.77 0 0 0 .582.437l.656.1z" class="prefix__cls-1" data-name="Path 493" transform="translate(.987 .864)"/>
        </g>
    </g>
</svg>
