<svg xmlns="http://www.w3.org/2000/svg" viewBox="0 0 392.53 512"><title>Applications</title><g id="Layer_2" data-name="Layer 2"><g id="Capa_1" data-name="Capa 1"><path d="M366.93,0H25.6A25.62,25.62,0,0,0,0,25.6V486.4A25.63,25.63,0,0,0,25.6,512H366.93a25.62,25.62,0,0,0,25.6-25.6V25.6A25.62,25.62,0,0,0,366.93,0Zm8.54,486.4a8.55,8.55,0,0,1-8.54,8.53H25.6a8.53,8.53,0,0,1-8.53-8.53V25.6a8.53,8.53,0,0,1,8.53-8.53H366.93a8.55,8.55,0,0,1,8.54,8.53V486.4Z"/><path d="M127.44,191.61a93.4,93.4,0,0,0,137.65,0,7.86,7.86,0,0,0,.78-.85,93.87,93.87,0,1,0-139.21,0A7.86,7.86,0,0,0,127.44,191.61Zm15.94-8.07a59.93,59.93,0,0,1,30.23-27.61,52.93,52.93,0,0,1,12.95-3.55,39.13,39.13,0,0,0,19.41,0A53.42,53.42,0,0,1,219,156a59.93,59.93,0,0,1,30.17,27.59A76.42,76.42,0,0,1,143.38,183.54Zm27.29-72.61a25.6,25.6,0,1,1,25.6,25.6A25.6,25.6,0,0,1,170.67,110.93ZM128.8,91.22a76.78,76.78,0,1,1,131.92,78.39,76.89,76.89,0,0,0-34-28.86,42.67,42.67,0,1,0-60.87,0,76.94,76.94,0,0,0-34,28.86A76.69,76.69,0,0,1,128.8,91.22Z"/><path d="M64,298.67h93.87a29.87,29.87,0,0,0,0-59.74H64a29.87,29.87,0,0,0,0,59.74ZM119.47,256h38.4a12.8,12.8,0,0,1,0,25.6h-38.4V256ZM64,256h38.4v25.6H64A12.8,12.8,0,1,1,64,256Z"/><path d="M328.53,238.93H234.67a29.87,29.87,0,1,0,0,59.74h93.86a29.87,29.87,0,0,0,0-59.74ZM273.07,281.6h-38.4a12.8,12.8,0,1,1,0-25.6h38.4Zm55.46,0h-38.4V256h38.4a12.8,12.8,0,0,1,0,25.6Z"/><path d="M157.87,375.47a29.87,29.87,0,0,0,0-59.74H64a29.87,29.87,0,0,0,0,59.74Zm-38.4-42.67h38.4a12.8,12.8,0,0,1,0,25.6h-38.4V332.8ZM51.2,345.6A12.81,12.81,0,0,1,64,332.8h38.4v25.6H64A12.81,12.81,0,0,1,51.2,345.6Z"/><path d="M328.53,315.73H234.67a29.87,29.87,0,1,0,0,59.74h93.86a29.87,29.87,0,0,0,0-59.74ZM273.07,358.4h-38.4a12.8,12.8,0,1,1,0-25.6h38.4Zm55.46,0h-38.4V332.8h38.4a12.8,12.8,0,1,1,0,25.6Z"/><path d="M129.3,418.85h0l-19.08-2.92-8.62-18.47a8.53,8.53,0,0,0-15.47,0l-8.61,18.47-19.08,2.92a8.54,8.54,0,0,0-4.83,14.38l14.08,14.52-3.34,20.6a8.54,8.54,0,0,0,12.57,8.83l17-9.43,16.95,9.43a8.54,8.54,0,0,0,12.57-8.83L120,447.75l14.09-14.52a8.54,8.54,0,0,0-4.83-14.38Zm-24.49,20.09a8.53,8.53,0,0,0-2.3,7.31l1.21,7.45L98,450.53a8.55,8.55,0,0,0-8.29,0L84,453.7l1.22-7.45a8.53,8.53,0,0,0-2.3-7.31l-5.56-5.73,7.25-1.11a8.52,8.52,0,0,0,6.44-4.83l2.81-6,2.81,6a8.52,8.52,0,0,0,6.44,4.83l7.25,1.11Z"/><path d="M231.7,418.85h0l-19.08-2.92L204,397.46a8.53,8.53,0,0,0-15.47,0l-8.61,18.47-19.08,2.92A8.54,8.54,0,0,0,156,433.23l14.08,14.52-3.34,20.6a8.54,8.54,0,0,0,12.57,8.83l17-9.43,16.95,9.43a8.54,8.54,0,0,0,12.57-8.83l-3.35-20.6,14.09-14.52a8.54,8.54,0,0,0-4.83-14.38Zm-24.49,20.09a8.53,8.53,0,0,0-2.3,7.31l1.21,7.45-5.71-3.17a8.55,8.55,0,0,0-8.29,0l-5.71,3.17,1.21-7.45a8.53,8.53,0,0,0-2.3-7.31l-5.55-5.73L187,432.1a8.51,8.51,0,0,0,6.43-4.83l2.82-6,2.81,6a8.51,8.51,0,0,0,6.44,4.83l7.24,1.11Z"/><path d="M334.1,418.85h0L315,415.93l-8.62-18.47a8.53,8.53,0,0,0-15.47,0l-8.61,18.47-19.08,2.92a8.54,8.54,0,0,0-4.83,14.38l14.08,14.52-3.34,20.6a8.54,8.54,0,0,0,12.57,8.83l16.95-9.43,16.95,9.43a8.54,8.54,0,0,0,12.57-8.83l-3.35-20.6,14.09-14.52a8.54,8.54,0,0,0-4.83-14.38Zm-24.49,20.09a8.53,8.53,0,0,0-2.3,7.31l1.21,7.45-5.71-3.17a8.55,8.55,0,0,0-8.29,0l-5.71,3.17,1.22-7.45a8.53,8.53,0,0,0-2.3-7.31l-5.56-5.73,7.25-1.11a8.52,8.52,0,0,0,6.44-4.83l2.81-6,2.81,6a8.52,8.52,0,0,0,6.44,4.83l7.25,1.11Z"/></g></g></svg>