<svg xmlns="http://www.w3.org/2000/svg" width="43.104" height="50.447" viewBox="0 0 43.104 50.447">
    <path fill="#ffab2e" d="M69.837 42.863l-6.6-11.349c1.143-.349 2.36-.656 2.866-1.53.843-1.455-.657-3.842-.264-5.4.406-1.605 2.8-2.994 2.8-4.626 0-1.59-2.477-3.447-2.883-5.043-.4-1.559 1.1-3.949.254-5.4s-3.662-1.334-4.822-2.45C59.993 5.913 60 3.1 58.558 2.334s-3.793.789-5.4.419C51.575 2.388 50.158 0 48.5 0c-1.681 0-4.355 2.709-4.774 2.806-1.6.373-3.954-1.184-5.4-.409S36.9 5.979 35.71 7.129c-1.158 1.118-3.974 1-4.817 2.459s.658 3.841.264 5.4-2.874 3.15-2.874 4.959c0 1.632 2.4 3.017 2.81 4.621.4 1.559-1.1 3.949-.253 5.4a4.16 4.16 0 0 0 2.547 1.432c.122.036.352.173.2.4l-6.462 11.146a.92.92 0 0 0 .824 1.5l4.456.186a3.547 3.547 0 0 1 2.538 1.47l2.378 3.773a.92.92 0 0 0 1.714-.032s6.652-11.485 6.655-11.488c.133-.156.268-.124.332-.069a4.605 4.605 0 0 0 2.589 1.238 3.984 3.984 0 0 0 2.36-1.231c.062-.053.213-.161.323.064l6.647 11.426a.92.92 0 0 0 1.714.029l2.371-3.777a3.547 3.547 0 0 1 2.535-1.475l4.455-.194a.92.92 0 0 0 .821-1.503zM55.865 32.532a14.766 14.766 0 1 1-.3-25.745l.11.061.155.087a14.794 14.794 0 0 1 .03 25.6z" transform="translate(-26.93)"/>
</svg>
