<svg xmlns="http://www.w3.org/2000/svg" viewBox="0 0 480 480"><defs><style>.cls-1{fill:#231f20;}</style></defs><title>Teams</title><g id="Layer_2" data-name="Layer 2"><g id="Capa_1" data-name="Capa 1"><path class="cls-1" d="M240,112a56,56,0,1,0-56-56A56,56,0,0,0,240,112Zm0-96a40,40,0,1,1-40,40A40,40,0,0,1,240,16Z"/><path class="cls-1" d="M336,328V192a72.07,72.07,0,0,0-72-72H216a72.07,72.07,0,0,0-72,72V328h32V480h16V296H176v16H160V192a56.07,56.07,0,0,1,56-56h48a56.07,56.07,0,0,1,56,56V312H304V296H288V480h16V328Z"/><path class="cls-1" d="M232,328h16V480H232Z"/><path class="cls-1" d="M400,176a48,48,0,1,0-48-48A48,48,0,0,0,400,176Zm0-80a32,32,0,1,1-32,32A32,32,0,0,1,400,96Z"/><path class="cls-1" d="M480,240a56.07,56.07,0,0,0-56-56H352v16h72a40.05,40.05,0,0,1,40,40V344H448V328H432V480h16V360h32Z"/><path class="cls-1" d="M352,344H320v16h32V480h16V328H352Z"/><path class="cls-1" d="M392,360h16V480H392Z"/><path class="cls-1" d="M80,176a48,48,0,1,0-48-48A48,48,0,0,0,80,176Zm0-80a32,32,0,1,1-32,32A32,32,0,0,1,80,96Z"/><path class="cls-1" d="M56,200h72V184H56A56.07,56.07,0,0,0,0,240V360H32V480H48V328H32v16H16V240A40.05,40.05,0,0,1,56,200Z"/><path class="cls-1" d="M128,328H112V480h16V360h42V344H128Z"/><path class="cls-1" d="M72,360H88V480H72Z"/></g></g></svg>