<svg xmlns="http://www.w3.org/2000/svg" width="80.363" height="40" viewBox="0 0 80.363 40">
    <defs>
        <style>
            .prefix__cls-1{fill:#5c6881}
        </style>
    </defs>
    <g id="prefix__Tournaments_x5F_Multiple">
        <g id="prefix__Group_937" data-name="Group 937">
            <g id="prefix___ÎÓÈ_6_2_">
                <path id="prefix__Path_458" d="M17.045 19.039h-3.33a.365.365 0 1 0 0 .73h3.33a.365.365 0 1 0 0-.73z" class="prefix__cls-1" data-name="Path 458" transform="translate(5.566 7.264)"/>
                <path id="prefix__Path_459" d="M52.483 1.783h-2.51a.365.365 0 1 0 0 .73h2.51a.365.365 0 0 0 0-.73z" class="prefix__cls-1" data-name="Path 459" transform="translate(23.316 -.363)"/>
                <path id="prefix__Path_460" d="M51.288 18.306a1.318 1.318 0 1 0 1.318 1.318 1.318 1.318 0 0 0-1.318-1.318zm0 1.9a.576.576 0 1 0 0-.014z" class="prefix__cls-1" data-name="Path 460" transform="translate(23.242 7.97)"/>
                <path id="prefix__Path_461" d="M29.074 15.107h-1.639v-1.653a.365.365 0 1 0-.73 0V15.1h-1.641a.365.365 0 1 0 0 .73h1.641v1.653a.365.365 0 1 0 .73 0v-1.646h1.639a.365.365 0 1 0 0-.73z" class="prefix__cls-1" data-name="Path 461" transform="translate(10.545 6.65)"/>
                <path id="prefix__Path_462" d="M43.324 15.289a.637.637 0 1 0 .027 0zm0 .875a.237.237 0 1 1 .237-.237.233.233 0 0 1-.23.237z" class="prefix__cls-1" data-name="Path 462" transform="translate(16.189 6.058)"/>
                <path id="prefix__Path_463" d="M38.389 15.289a.635.635 0 1 0 .009 0zm0 .875a.236.236 0 1 1 .233-.239.236.236 0 0 1-.233.239z" class="prefix__cls-1" data-name="Path 463" transform="translate(14.313 6.058)"/>
                <path id="prefix__Path_464" d="M40.842 12.814a.642.642 0 1 0 .639.644v-.006a.639.639 0 0 0-.639-.639zm0 .875a.236.236 0 1 1 .233-.239.236.236 0 0 1-.233.239z" class="prefix__cls-1" data-name="Path 464" transform="translate(15.243 5.077)"/>
                <path id="prefix__Path_465" d="M40.842 17.753a.642.642 0 1 0 .639.644.641.641 0 0 0-.639-.644zm0 .875a.233.233 0 0 1-.237-.23.236.236 0 0 1 .47-.053.289.289 0 0 1 0 .053.233.233 0 0 1-.233.233z" class="prefix__cls-1" data-name="Path 465" transform="translate(15.243 7.034)"/>
                <path id="prefix__Path_466" d="M77.008 0H63.8a3.354 3.354 0 0 0-3.354 3.354v11.619a6.493 6.493 0 0 0-3.864-1.163H40.106V1.917A1.082 1.082 0 0 0 39.024.834h-34.7a1.082 1.082 0 0 0-1.082 1.083v21.332a.81.81 0 0 0 0 .2C2.818 23.983 2 25.29.087 28.51a.311.311 0 0 0 0 .05.156.156 0 0 0 0 .05.639.639 0 0 0-.045.214H0v1.382a1.751 1.751 0 0 0 1.673 1.821h24.548c-.9 4.582 1.112 6.538 2.076 7.187A4.661 4.661 0 0 0 30.9 40a5.053 5.053 0 0 0 3.085-1.069c2-1.5 4.492-6.409 5.161-7.787h15.263c.684 1.378 3.19 6.264 5.161 7.787a4.863 4.863 0 0 0 5.685.285c.958-.643 2.93-2.566 2.1-7.043h9.678a3.358 3.358 0 0 0 3.329-3.354V3.365A3.356 3.356 0 0 0 77.017 0zM4.493 2.082h34.37V13.8h-1.926c-4.811 0-6.808 3.993-8.376 9.289H4.493zm-.349 22.251h24.079c-.264.958-.5 1.947-.778 2.96l-.24.908H1.749c.988-1.7 2.007-3.339 2.391-3.868zm-2.9 5.874v-.759h25.63q-.174.669-.36 1.333H1.674c-.23 0-.425-.259-.425-.573zm63.286 7.986a3.62 3.62 0 0 1-4.228-.234c-2-1.562-4.942-7.626-4.991-7.692a.629.629 0 0 0-.564-.354h-16a.618.618 0 0 0-.559.354c-.814 1.677-3.294 6.379-4.972 7.667a3.618 3.618 0 0 1-4.216.235c-1.731-1.163-2.206-3.7-1.3-6.958.339-1.232.654-2.446.958-3.614 1.881-7.287 3.245-12.553 8.286-12.553h19.619c5.051 0 6.414 5.266 8.3 12.563.3 1.168.619 2.38.958 3.614.919 3.26.444 5.8-1.288 6.958zm14.584-9.373a2.112 2.112 0 0 1-2.1 2.127H67.05v-.04c-.339-1.228-.654-2.431-.953-3.594-1.178-4.562-2.256-8.73-4.4-11.191V3.354a2.107 2.107 0 0 1 2.106-2.106h13.214a2.107 2.107 0 0 1 2.106 2.106z" class="prefix__cls-1" data-name="Path 466"/>
            </g>
        </g>
    </g>
</svg>
