<svg xmlns="http://www.w3.org/2000/svg" width="53.327" height="51.54" viewBox="0 0 53.327 51.54">
    <defs>
        <style>
            .prefix__cls-1{fill:none;stroke:#5c6881}
        </style>
    </defs>
    <g id="prefix__Leftsidemenu_x5F_Suggestamatch" transform="translate(.629 .597)">
        <g id="prefix__Group_890" data-name="Group 890" transform="translate(.001 -.066)">
            <path id="prefix__Path_400" d="M32.47 20.09A77.371 77.371 0 0 0 49.587.534a.394.394 0 0 0-.572-.52 44.415 44.415 0 0 1-6.566 4.153 29.038 29.038 0 0 1-8.466 2.49A2.585 2.585 0 0 0 32.176 7.8c-.864 1.325-2.539 3.81-4.7 6.612 1 1.243 2.078 2.516 3.209 3.746q.934 1.013 1.783 1.927z" class="prefix__cls-1" data-name="Path 400" transform="translate(.898 .066)"/>
            <path id="prefix__Path_401" d="M19.084 23.887c-2.861 3.042-4.882 5.1-6.047 6.254l-.526-.526a1.654 1.654 0 0 0-2.339 2.339l.233.233A2.065 2.065 0 0 0 8.2 34.752a2.063 2.063 0 0 0-2.511 2.51 2.063 2.063 0 0 0-2.545 2.358l-.319-.32a1.654 1.654 0 1 0-2.339 2.339l6.977 6.977a1.654 1.654 0 0 0 .989.474l3.828.422a1.654 1.654 0 0 0 .361-3.288l-3.251-.358-2.355-2.355a2.064 2.064 0 0 0 2.358-2.545 2.085 2.085 0 0 0 .51.066 2.066 2.066 0 0 0 2-2.577 2.065 2.065 0 0 0 2.566-2.205l.465.465.358 3.251a1.654 1.654 0 0 0 1.642 1.473 1.626 1.626 0 0 0 .183-.01 1.654 1.654 0 0 0 1.465-1.829l-.422-3.828a1.654 1.654 0 0 0-.474-.989l-.966-.966 6.78-6.778q-2.262-1.5-4.418-3.152z" class="prefix__cls-1" data-name="Path 401" transform="translate(-.001 .984)"/>
            <path id="prefix__Path_402" d="M51.732 39.937a1.7 1.7 0 0 0-2.405 0l-.327.328a2.121 2.121 0 0 0-2.617-2.422 2.121 2.121 0 0 0-2.583-2.581 2.12 2.12 0 0 0-1.226-2.478 2.144 2.144 0 0 0-1.043-.16l.239-.239a1.7 1.7 0 0 0-2.405-2.4l-.541.541c-1.622-1.613-4.86-4.908-9.668-10.135a100.419 100.419 0 0 1-9.5-12.369A2.656 2.656 0 0 0 17.8 6.839a29.886 29.886 0 0 1-8.712-2.558A45.342 45.342 0 0 1 2.333.015a.405.405 0 0 0-.588.535 79.532 79.532 0 0 0 24.467 25.092l.423.274 8.4 8.391-.994.993a1.7 1.7 0 0 0-.488 1.016l-.011.1-.422 3.829a1.7 1.7 0 0 0 3.381.372l.219-1.989.788-.787a2.115 2.115 0 0 0 2.479 1.225 2.118 2.118 0 0 0 2.582 2.581 2.118 2.118 0 0 0 2.425 2.615l-2.422 2.42-3.343.368a1.7 1.7 0 0 0 .184 3.389c.063 0 .125 0 .188-.01L43.536 50a1.7 1.7 0 0 0 1.017-.487l7.176-7.17a1.7 1.7 0 0 0 0-2.405z" class="prefix__cls-1" data-name="Path 402" transform="translate(-.032 .066)"/>
        </g>
    </g>
</svg>
